<svg width="188" height="188" viewBox="0 0 188 188" fill="none" xmlns="http://www.w3.org/2000/svg">
<rect width="188" height="188" rx="41.7778" fill="#FF815A"/>
<path d="M88.2829 155.632V146.701C84.8001 146.364 81.1487 145.689 77.3288 144.678C73.6212 143.555 70.026 142.038 66.5431 140.128C63.1726 138.218 60.1391 135.915 57.4427 133.219L66.7116 117.377C68.0598 117.939 68.7901 118.725 68.9025 119.736C69.1272 120.748 69.7451 121.759 70.7562 122.77C72.2168 124.23 73.8459 125.466 75.6435 126.478C77.4411 127.489 79.3511 128.331 81.3734 129.005C83.3957 129.68 85.4742 130.241 87.6088 130.691V102.547C81.7666 100.075 76.7108 97.5472 72.4415 94.9632C68.2845 92.2667 65.0825 89.1209 62.8355 85.5257C60.5885 81.9305 59.465 77.7735 59.465 73.0548C59.465 68.4484 60.8132 64.4038 63.5096 60.9209C66.206 57.4381 69.7451 54.6293 74.1268 52.4946C78.5084 50.2476 83.2272 48.7871 88.2829 48.1129V38.3384H100.922C101.259 38.4508 101.484 38.6755 101.596 39.0126C101.709 39.2373 101.765 39.5181 101.765 39.8552C101.765 40.0799 101.596 40.6978 101.259 41.709C100.922 42.6078 100.754 43.5628 100.754 44.5739V47.9444C104.012 48.3938 107.214 49.2365 110.36 50.4723C113.506 51.5958 116.483 53.0564 119.292 54.854C122.1 56.6516 124.572 58.8424 126.707 61.4265L117.269 73.3918C115.921 73.2795 115.079 72.7177 114.742 71.7066C114.517 70.5831 114.067 69.8528 113.393 69.5157C112.719 68.7293 111.933 68.0552 111.034 67.4934C110.135 66.9317 109.124 66.4261 108 65.9767C106.989 65.5273 105.922 65.1902 104.798 64.9655C103.675 64.6285 102.551 64.3476 101.428 64.1229V88.5592C107.944 90.9185 113.225 93.3903 117.269 95.9743C121.426 98.5584 124.46 101.536 126.37 104.906C128.28 108.277 129.235 112.378 129.235 117.209C129.235 121.815 128.055 126.253 125.696 130.522C123.336 134.679 119.966 138.218 115.584 141.139C111.315 143.948 106.371 145.746 100.754 146.532V155.632H88.2829ZM101.428 130.522C103.338 129.96 105.079 129.062 106.652 127.826C108.338 126.59 109.63 125.129 110.528 123.444C111.54 121.759 112.045 120.017 112.045 118.22C112.045 116.197 111.54 114.456 110.528 112.995C109.63 111.535 108.394 110.243 106.821 109.119C105.248 107.996 103.45 107.097 101.428 106.423V130.522ZM87.6088 83.5034V63.9544C85.9236 64.1791 84.2383 64.6847 82.5531 65.4711C80.9802 66.1452 79.6881 67.044 78.677 68.1675C77.7782 69.291 77.3288 70.7516 77.3288 72.5492C77.3288 73.8974 77.722 75.2456 78.5084 76.5938C79.4072 77.942 80.6431 79.2341 82.216 80.4699C83.7889 81.5934 85.5865 82.6046 87.6088 83.5034Z" fill="#191C21"/>
</svg>
