<svg width="1248" height="1249" viewBox="0 0 1248 1249" fill="none" xmlns="http://www.w3.org/2000/svg">
<rect y="0.5" width="1248" height="1248" rx="141.818" fill="#84F5CC"/>
<path fill-rule="evenodd" clip-rule="evenodd" d="M277.382 225.549C278.737 226.66 279.962 227.935 281.055 229.37C298.119 252.808 319.427 271.274 344.979 284.77C392.888 310.145 443.93 324.153 498.102 326.798C588.918 327.292 679.733 327.783 770.549 328.267C803.783 325.664 834.937 332.423 864.01 348.547C877.564 356.132 890.399 364.752 902.511 374.41C935.037 402.951 955.66 438.563 964.377 481.243C965.403 487.885 966.284 494.548 967.022 501.229C967.413 506.513 967.513 511.803 967.316 517.099C967.319 520.127 966.631 522.969 965.259 525.622C963.457 526.848 961.447 527.483 959.234 527.533C797.491 527.824 635.745 527.921 474.002 527.827C426.793 528.088 385.252 513.099 349.388 482.86C328.765 465.728 312.159 445.399 299.571 421.875C289.543 401.884 282.884 380.82 279.586 358.686C277.003 339.865 275.433 320.955 274.884 301.963C274.516 277.464 274.81 252.97 275.765 228.488C276.385 227.539 276.926 226.56 277.382 225.549Z" fill="#16171C"/>
<path fill-rule="evenodd" clip-rule="evenodd" d="M506.026 583.674C506.032 578.268 510.416 573.889 515.822 573.889C576.529 573.889 637.236 573.889 697.943 573.889C702.567 573.889 706.388 577.5 706.625 582.118V582.118C706.634 652.263 706.831 722.409 707.213 792.551C709.488 843.84 720.756 893.022 741.012 940.09C756.172 972.502 777.638 999.887 805.408 1022.25C806.635 1023.24 806.348 1025.15 804.798 1025.44V1025.44C804.695 1025.46 804.589 1025.47 804.484 1025.47C769.856 1026.19 735.228 1026.29 700.6 1025.76C634.499 1022.82 582.134 994.75 543.51 941.56C520.13 909.733 507.786 873.974 506.478 834.285C506.093 750.749 505.943 667.213 506.026 583.674Z" fill="#16171C"/>
</svg>
