<svg width="29" height="35" viewBox="0 0 29 35" fill="none" xmlns="http://www.w3.org/2000/svg">
<path fill-rule="evenodd" clip-rule="evenodd" d="M0.110012 0.829102C0.166232 0.8752 0.217086 0.928127 0.262453 0.98764C0.970511 1.96021 1.85467 2.72644 2.91493 3.28645C4.90288 4.33939 7.02083 4.92062 9.26867 5.03038C13.037 5.05086 16.8054 5.07123 20.5737 5.09135C21.9527 4.9833 23.2454 5.26379 24.4518 5.93283C25.0142 6.24759 25.5468 6.60527 26.0494 7.00601C27.399 8.19029 28.2548 9.668 28.6165 11.439C28.659 11.7146 28.6956 11.9911 28.7262 12.2683C28.7425 12.4875 28.7466 12.7071 28.7384 12.9268C28.7386 13.0524 28.71 13.1704 28.6531 13.2805C28.5783 13.3313 28.4949 13.3577 28.4031 13.3598C21.6916 13.3718 14.9801 13.3758 8.26865 13.3719C6.30973 13.3828 4.58605 12.7608 3.09786 11.5061C2.24211 10.7952 1.55308 9.95166 1.03076 8.97555C0.614652 8.14603 0.338307 7.27199 0.201476 6.35356C0.0942797 5.57258 0.0291569 4.78793 0.00635171 3.99987C-0.00889239 2.98328 0.00330289 1.96692 0.0429376 0.951054C0.0686696 0.911664 0.0911089 0.871053 0.110012 0.829102Z" fill="#84F5CC"/>
<path fill-rule="evenodd" clip-rule="evenodd" d="M9.59468 15.6881C9.5949 15.4628 9.77763 15.2803 10.0029 15.2803C12.5213 15.2803 15.0397 15.2803 17.5582 15.2803C17.75 15.2803 17.9086 15.4301 17.9184 15.6217C17.9188 18.5324 17.9269 21.443 17.9428 24.3536C18.0372 26.4818 18.5048 28.5225 19.3453 30.4756C19.9743 31.8205 20.8651 32.9568 22.0173 33.8847C22.0683 33.9258 22.0563 34.0052 21.992 34.0171C21.9878 34.0179 21.9833 34.0184 21.979 34.0184C20.5421 34.0484 19.1053 34.0524 17.6684 34.0305C14.9256 33.9083 12.7527 32.7437 11.15 30.5366C10.1799 29.2159 9.66769 27.7321 9.61342 26.0853C9.59746 22.6196 9.59121 19.1539 9.59468 15.6881Z" fill="#84F5CC"/>
</svg>
