<svg width="29" height="35" viewBox="0 0 29 35" fill="none" xmlns="http://www.w3.org/2000/svg">
<path fill-rule="evenodd" clip-rule="evenodd" d="M0.110012 0.865234C0.166232 0.911333 0.217086 0.96426 0.262453 1.02377C0.970511 1.99635 1.85467 2.76258 2.91493 3.32258C4.90288 4.37552 7.02083 4.95675 9.26867 5.06651C13.037 5.087 16.8054 5.10736 20.5737 5.12748C21.9527 5.01943 23.2454 5.29993 24.4518 5.96896C25.0142 6.28372 25.5468 6.64141 26.0494 7.04214C27.399 8.22643 28.2548 9.70413 28.6165 11.4751C28.659 11.7507 28.6956 12.0272 28.7262 12.3044C28.7425 12.5237 28.7466 12.7432 28.7384 12.963C28.7386 13.0886 28.71 13.2065 28.6531 13.3166C28.5783 13.3675 28.4949 13.3938 28.4031 13.3959C21.6916 13.408 14.9801 13.412 8.26865 13.4081C6.30973 13.4189 4.58605 12.797 3.09786 11.5422C2.24211 10.8313 1.55308 9.98779 1.03076 9.01168C0.614652 8.18216 0.338307 7.30812 0.201476 6.3897C0.0942797 5.60871 0.0291569 4.82407 0.00635171 4.03601C-0.00889239 3.01941 0.00330289 2.00305 0.0429376 0.987187C0.0686696 0.947796 0.0911089 0.907186 0.110012 0.865234Z" fill="#C5DBFF"/>
<path fill-rule="evenodd" clip-rule="evenodd" d="M9.59468 15.7291C9.5949 15.5038 9.77763 15.3213 10.0029 15.3213C12.5213 15.3213 15.0397 15.3213 17.5582 15.3213C17.75 15.3213 17.9086 15.4711 17.9184 15.6628C17.9188 18.5734 17.9269 21.484 17.9428 24.3946C18.0372 26.5228 18.5048 28.5635 19.3453 30.5166C19.9743 31.8615 20.8651 32.9978 22.0173 33.9258C22.0683 33.9668 22.0563 34.0462 21.992 34.0582C21.9878 34.0589 21.9833 34.0594 21.979 34.0595C20.5421 34.0895 19.1053 34.0934 17.6684 34.0715C14.9256 33.9493 12.7527 32.7847 11.15 30.5776C10.1799 29.2569 9.66769 27.7732 9.61342 26.1263C9.59746 22.6606 9.59121 19.1949 9.59468 15.7291Z" fill="#C5DBFF"/>
</svg>
